<svg xmlns="http://www.w3.org/2000/svg" style="display: none;">
  
    <symbol id="icon-publichealth" viewBox="0 0 512 512">
      <path d="m142 450l-7-4-1-128c0-71-1-129-2-129 0 0-10 3-20 6-24 8-29 7-34-5-4-8-3-13 2-18 3-3 38-16 93-34 13-5 22-8 74-26 14-5 30-11 36-13 6-2 25-9 43-15 17-6 38-13 46-16 7-2 22-8 33-12 11-3 23-7 28-7 6 0 8 1 11 7 5 8 5 16 0 21-2 2-11 6-20 9l-16 6 0 173c0 128 0 176-2 179-3 6-12 9-28 9l-11 0 0-246-5-4c-5-4-5-4-88-4-79 0-83 0-86 4-3 2-5 6-5 8-1 3-1 58-1 124l1 118-17 0c-12 0-19-1-24-3z m49 4c-3-2-3-16-3-123 0-107 0-120 3-123 2-3 13-3 84-3 60 0 82 0 83 2 4 3 4 245 0 248-1 2-23 2-83 2-71 0-82 0-84-3z m169-212c0-15-1-28-1-32 0-2 0-3 0-3 0 0 1 1 1 1 0 1 0 1 0 1 1 0 1 8 1 24l0 24z m1 7c0-20 0-29 0-19 0 11 0 27 0 37 0 10 0 2 0-18z m0 82c0-79 0-119 0-119 1 0 1 40 1 119 0 79 0 118-1 118 0 0 0-39 0-118z m-174-83c0-25 0-37 1-37 0 0 0-1 0-1 0-1 1-2 1-2 1 0 1 0 1-1 0 0 0 0 1-1 1-1 1-2 2-2 1 0 1 0 1 0 0 0 27 0 81 0 53 0 80 0 80 0 0 0 0 0 0 0 1 0 1 1 1 1 0 0 0 0 1 0 1 0 2 1 2 2 0 0-1 0-1 0-1-1-6-1-14-2-11 0-104-1-125 0-23 0-27 1-29 3-2 3-2 12-2 47l-1 29z m172 206c0-2 1-25 1-43 1-3 1 5 1 18 0 15 0 24-1 24 0 0 0 0 0 0 0 0 0 1 0 1-1 0-1 0-1 0 0 0 0 1 0 1 0 0 0-1 0-1z m54-401c0 0 0-1 1-1 0 0 1 0 1 0 0 0 0 0 1 0 1 0 1 0 1-1 0 0 1 0 1 0 1 0 1 0 1 0 0 0 1-1 1-1 1 0 1 0 1 0 0-1 1-1 1-1 1 0 2 0 2 0 0 0 0 0 1 0 1 0 1-1 1-1 0 0 2 0 5 0 3 0 5 0 5 0 0 0 0 1 1 1 0 0 0 0 0 0 0 0 1 0 1 0 1 0 1 1 1 1 0 0 0 0 0 0-1 0-3 0-5-1-4 0-7 1-16 3-3 1-5 2-5 2 0 0 0-1 0-1z m-333 143c0 0-1-1-1-1 0 0 0-1 0-1 0 0 0 0 0 0 0-1-1-1-1-1 0 0 0 0 0 0 0-1 0-1-1-1 0 0 0-1 0-1 0-1 0-2-1-2 0 0 0 0 0 0 0-1 0-1 0-1 0 0-1-1-1-1 0-1 0-1 0-1 0 0 0-1 0-2 0-1-1-1-1-2 0 0-1-2 0-2 0 0 1-1 1-2 0-3 0-3 1-4 0 0 1-1 1-1 0 0 0-1 0-1 1 0 2 0 2-1 0 0 1-1 1-1 0 0 1 0 1 0 0-1 0-1 0-1 0 0 1 0 1 0 0 0 0 0 0 0 1 0 1-1 1-1 0 0 0 0 1 0 1 0 2-1 2-1 0 0 0 0 1 0 0 0 1 0 1-1 0 0 0 0 1 0 1 0 1 0 1 0 0 0 1-1 1-1 1 0 1 0 1 0 1 0 1 0 1 0 1 0 1 0 1-1 1 0 1 0 2 0 0 0 0 0 0-1 0 0 1 0 2 0 0 0 1 0 1 0 0-1 0-1 1-1 1 0 1 0 1 0 0 0 1 0 1 0 1 0 2-1 2-1 0 0 0 0 1 0 0 0 1-1 1-1 0 0 0 0 1 0 1 0 1 0 1-1 0 0 0 0 1 0 0 0 1 0 1 0 0 0 1-1 1-1 1 0 1 0 1 0 0 0 0-1 1-1 1 0 1 0 1 0 0 0 1 0 2 0 0 0 1-1 1-1 0 0 0 0 1 0 0 0 1 0 1 0 0-1 1-1 1-1 1 0 1 1-5 3-11 4-29 11-32 12-3 2-4 2-5 4-3 3-3 7-1 13 1 3 3 7 4 9 0 0 1 1 1 1 0 0-1 0-2-1z m54 249c0 0 0 0 0 0-1 0-1-1-1-1 0-1 0-1 0-1-1 0-1-42-1-125 0-69 1-122 1-118 1 28 2 249 1 245z m-2-131c0-83 0-125 0-125 0 0 0 42 0 125 0 83 0 125 0 125 0 0 0-42 0-125z m22 139c-6-1-9-2-15-4l-4-3 0-94c-1-51-1-104-1-118-1-25-1-45-1-45-1-1-5 1-17 5-21 6-26 7-31 5-2-2-4-3-6-8-5-10-4-17 4-21 7-3 34-13 74-26 36-13 39-14 66-24 27-9 86-30 127-44 13-5 31-11 40-14 30-11 37-13 44-12 5 0 7 1 9 5 5 7 6 13 4 18-2 3-4 4-8 7-6 3-11 5-22 8l-9 3 0 155c0 149 0 176-1 191-1 7-1 7-2 9-4 5-13 7-30 7l-8 0 0-246-3-3c-4-3-4-3-7-4-6-1-11-1-82-1-71 0-76 0-83 1-1 0-3 1-3 1-2 1-4 5-6 8l-1 2 0 21c0 21 0 96 0 181l0 40-12 0c-7 0-14 0-16 0z m-19-16c0-2 0-29 0-60-1-99-1-155-2-179 0-4 0-7 0-7l0-1 275 0 0 76c0 75 0 116 0 140 0 13-1 28-1 31 0 2 0 3 0 3l0 1-40 0 0-117 0-117-3-2c-3-3-4-4-5-4-2-1-6-2-13-2-8 0-68 0-104 0-34 0-40 0-45 1-6 0-8 1-10 3-2 2-3 5-4 7-1 2-1 8-1 41 0 30 0 80 0 153 0 19 0 34 0 35l0 2-47 0 0-4 0 0z m-1-50c0-1 0-4 0-7 0-7 0-37 0-60 0-22 0-21 0-21 0 0 0 3 0 22 0 9 0 27 0 40 0 14 1 25 0 26l0 1z m-2-44l0-44 2 0 0 2c0 0 0 9 0 19 0 15 0 31 0 63l0 5-2 0z m0 0l0-44 2 0 0 2c0 0 0 9 0 19 0 10 0 27 0 37 0 11 0 23 0 26l0 5-2 0z m0 6c0-13 0-19 0-12 0 7 0 18 0 25 0 6 0 1 0-13z m0-6l0-44 2 0 0 1c0 1 0 10 0 20 0 10 0 27 0 37 0 11 0 22 0 25l0 6-2 0z m0 0l0-44 2 0 0 1c0 1 0 8 0 15 0 16 0 31 0 49 0 7 0 15 0 18l0 6-2 0z m0 6c0-1 0-1 0-1 0 1 0 1 0 2 0 0 0 0 0-1z m0-6l0-44 2 0 0 1c0 1 0 7 0 15 0 15 0 30 0 48 0 7 0 16 0 19l0 6-2 0z m0 5c0-1 0-1 0-1 0 1 0 2 0 2 0 1 0 0 0-1z m51-5l0-44 0 0 0 89 0 0z m-1 44c0 0 0-12 0-26 0-24 0-57 0-60l0-2 1 0 0 44c0 45 0 45-1 45 0 0 0 0 0-1z m1-44l0-44 0 0 0 89 0 0z m5 32c0-6 0-26 0-44l0-32 57 0 0 89-57 0z m-1-32c0-39 0-44 0-44 0 0 1 4 1 32 0 17 0 37 0 44l0 13-1 0z m0 0l0-44 0 0 0 89 0 0z m8 115l0-1-2 0 0 0c0-1 0-1-1-1l-1 0 0 0c0 0 0 0 0 0-1 0-1 0-1-1 0 0 0 0 0 0 0 0-1 0-1-1 0 0 0 0 0 0 0 0 0 0 0-1 0 0 0 0-1-1l0 0 0 0c0-1 0-1-1-1l0 0 0-32c0-31 0-31 0-31 1 0 1 0 1 8 0 14 0 36 0 43 1 10 1 14 3 15 1 2 6 3 17 3 9 0 17 0 55 0 39 0 40 0 40 1 0 0-1 0-54 0l-54 0z m-48-5l0-1-3 0 0 0-2 0 0-1c0 0 0 0-1 0l-1 0 0-1-1 0 0 0c0-1 0-1-1-1 0 0 0 0 0 0l0 0-2 0 0-1c0 0 0 0 0 0 0 0-1 0-1-1 0 0 0 0 0 0 0 0 0 0 0 0 0 0 0 0 4 2 5 2 7 3 11 3 1 1 3 1 5 1 0 0-1 0-4 0l-4 0z m35-196c0-24 0-43 0-44 1-1 1-1 1-1l0 0 0 87-1 0z m0 38c0-6 0-67 0-73 0-2 0 14 0 37 0 33 0 40 0 40 0 0 0-1 0-4z m-94-94l0-1-2 0 0 0c0 0 0 0 0 0 2 0 5 0 8 0 2 0 5-1 9-2 1 0 2-1 2-1 0 0 0 1 0 1l0 0-2 0 0 1-3 0 0 1-1 0-1 0 0 0 0 0-3 0 0 1-7 0z m33-45c0 0 0-1 0-1 0 0-2 0-2 0 0 0 0 0 0 0 0 0 0 0 1 0l1 0 0-1 3 0 0 0 2 0 0-1 2 0 0-1 2 0 0-1 2 0 0-1 3 0 0 0 2 0 0-1 2 0 0-1 3 0 0-1 2 0 0-1 2 0 0 0 2 0 0-1 2 0 0-1 3 0 0-1 2 0 0-1 2 0 0 0 3 0 0-1 1 0 0-1 3 0 0-1 2 0 0 0 2 0 0-1 3 0 0-1 2 0 0-1 2 0 0 0 2 0 0-1 2 0 0-1 3 0 0-1 2 0 0-1 2 0 0 0 3 0 0-1 2 0 0-1c0 0 0 0 1 0 0 0 0 0 1 0 0 0 0 0 0 0 0-1 0-1 1-1l1 0 0-1 2 0 0 0 3 0 0-1 2 0 0-1 2 0 0-1 3 0 0 0c0 0 0 0 0 0 1 0 1 0 1-1 1 0 1 0 1 0 0 0 0 0 1 0l1 0 0-1 2 0 0-1 2 0 0-1 3 0 0 0 2 0 0-1 2 0 0-1c0 0 0 0 1 0 0 0 1 0 1 0 1 0 1 0 1 0 0-1 0-1 0-1l1 0 0-1 3 0 0 0 2 0 0-1 2 0 0-1 3 0 0-1 2 0 0 0c0 0 0 0 1 0 0 0 1 0 1 0 0-1 0-1 0-1l0 0 2 0 0-1 2 0 0-1 3 0 0 0 2 0 0-1 2 0 0-1 1 0 2 0 0-1c0 0 0 0 0 0 1 0 1 0 1 0 1 0 1 0 1 0 0-1 0-1 1-1l1 0 0 0 2 0 0-1 2 0 0-1 3 0 0-1 2 0 0-1 1 0c1 0 1 0 1 0 0 0 0 0 1 0l2 0 0-1 0 0 2 0 0-1 2 0 0-1 2 0 0-1 2 0 0 0 3 0 0-1 2 0 0 0 0-1 2 0 0-1 3 0 0 0 1 0 0-1 3 0 0-1 2 0 0-1 2 0 0-1 3 0 0 0 1 0c1 0 1 0 1 0 0 0 0 0-1 0 0 1-8 3-17 7-20 6-27 9-63 22-35 12-36 12-60 21-12 3-24 8-34 11-4 2-8 3-8 3 0 0 0 0 1 0z m79 43c6 0 8 0 75 0 67 0 69 0 75 0 0 0-33 1-75 1-42 0-76-1-75-1z m166 40l0-31-1 0 0-2-1 0c0 0 0 0 0-1l0 0 1 0c0 1 0 1 1 2l1 0 0 62-1 0z m-5-10c0-4 0-10 0-12l0-5 1 0 0 4 0 3 0-3c0-2-1-4-1-4 0 0 0 0 0 13l0 11z m6 95l0-55-1 0 0-61-1 0 0-1c0-1 0-1 0-1-1 0-1-1-1-1 0 0 1 1 1 1 1 1 2 1 2 1 0 0-6-5-7-5l0-1 24 0c13 0 24 0 24 0 1 0 0 167 0 174l0 3-41 0z m-1 0l0-55 1 0 0 109-1 0z m0 92l0-38 1 0 0 75-1 0z m-5 15c0-8 0-36 0-62l0-48 1 0 0 61c0 33 0 61-1 62 0 1 0-5 0-13z m0-46l0-64 0 61c0 33 0 62 0 64 0 3 0 3 0 3 0 0 0-4 0-64z m0 20c0-25 0-35 0-23 0 13 0 33 0 45 0 12 0 2 0-22z m0 47c0 0 0-21 0-46 0-6 0-14 0-18 0-6 0 1 0 28 0 32 0 36 0 36-1 0-1 0 0 0z m0-47c0-1 0-1 0-1 0 1 0 1 0 2 0 0 0 0 0-1z m-59 53c1 0 1 0 0 0 0-1 0-1 14-1 30 0 41-1 42-2 0 0 0 0 0 0 0 1 0 1 0 1 0 0 0 0 0 0l0 0-2 0 0 1-3 0 0 1-26 0c-14 0-25 0-25 0z m104-15c1-3 1-10 2-24 0-1 0 4 0 11l0 12-1 0 0 1c0 1 0 1 0 1-1 0-1 0-1-1z m-18 10c4 0 7-1 9-2 1 0 1 0 1 0 0 0 0 0 0 0l0 1-2 0 0 0-3 0 0 1-3 0c-3 0-3 0-2 0z m-85-361c0 0 0 0-1 0l-1 0 1 0 1 0 0-1 2 0 0-1 2 0 0-1 2 0 0-1 3 0 0 0 2 0 0-1 2 0 0-1 3 0 0-1 2 0 0 0 2 0 0-1 2 0 0-1 2 0 0-1 3 0 0 0 2 0 0-1 2 0 0-1 3 0 0 0c0-1 0-1 0-1 1 0 1 0 1 0 1 0 1 0 1 0 0-1 0-1 1-1l1 0 0 0 2 0 0-1 2 0 0-1 3 0 0-1 2 0 0-1 2 0 0 0c0 0 0 0 1 0 0 0 1 0 1 0 0 0 1-1 1-1l0 0 1 0 0-1 3 0 0-1 2 0 0-1 2 0 0 0 3 0 0-1 1 0 1 0 0 0c0-1 0-1 1-1 0 0 1 0 1 0 0 0 0 0 0 0 0-1 0-1 1-1l1 0 0 0 2 0 0-1 3 0 0-1 2 0 0-1 2 0 0-1 1 0 2 0 0 0c0 0 0 0 0 0 1 0 1 0 1 0 1 0 1 0 1-1 0 0 0 0 1 0l1 0 0-1 2 0 0-1 2 0 0 0 3 0 0-1 2 0 0-1 1 0 1 0 0-1 3 0 0-1 2 0 0 0 2 0 0-1 2 0 0-1 2 0 0-1 3 0 0 0c0 0 0 0 0 0 0 0 0 0 0 0 0 0 0 0 0 0 0 1 0 1 0 1 1 0-1 0-3 1-2 0-8 2-13 4-10 4-13 5-33 12-11 4-27 9-51 18-6 2-10 3-10 3 0 0 0 0 0 0z m146-26c0 0 0 0 0 0 0 0 0 0 0 0 0 1 0 1 0 1 0 0 0 0 0-1z m-4 10c0 0 1 0 1-1 1-1 1-2 2-4 0-1 0-1 0-3 0-3 0-4-1-6 0 0 0-1 0-1 0 0 0 0 0 0l1 0 0 2 1 0 0 4 0 0 0 2 0 0 0 3-1 0 0 1c0 1 0 1-1 1l0 0 0 1 0 0c-1 0-1 0-1 1 0 0 0 0 0 0 0 0-1 0-1 0z m2-15c0-1-2-5-3-6-2-3-3-4-4-4l-1-1 1 0 1 0 0 1c0 0 0 0 0 0 0 0 1 0 1 0 0 1 0 1 0 1 0 0 0 0 0 0 0 0 0 1 1 1 0 0 0 0 0 0 0 0 0 0 0 0 1 0 1 0 1 1 0 0 0 0 0 0l1 0 0 2 0 0 0 1 1 0 0 1c0 1 0 1 1 1l0 0 0 1c0 1 0 1 0 1 0 0 0 0 0 0z m-5 18c0 0 0 0 0 0 0 0 0 0 0 0 0 1 0 1 0 1 0 0 0 0 0-1z m-226 70l0-26 8-3c26-9 46-16 61-21 9-3 21-8 27-10 25-8 42-14 50-17 18-7 25-9 35-13 15-5 19-6 26-8 6-1 9-2 12-1 4 0 6 1 8 3 2 4 4 9 5 12 0 1 0 4 0 5-1 2-2 5-3 6-2 2-5 3-10 6-5 2-7 3-20 7l-7 3 0 82-193 0z m0 0l0-26 10-4c25-9 42-14 58-20 10-4 25-9 33-12 24-8 36-12 45-15 18-7 25-9 34-12 16-6 19-7 26-9 7-1 9-2 13-1 4 0 6 1 8 3 2 4 4 9 5 12 0 1 0 4 0 5-1 2-2 5-3 6-2 2-5 3-10 6-5 2-7 3-19 7l-8 3 0 82-193 0z m219-67c0 0 0 0 0 0l1 0 0 0c0 0 0 0-1 0 0 0 0 0 0 0z m3-2c3-1 5-2 6-3l1 0 0 0c0 1 0 1-1 1 0 0 0 0 0 0 0 0 0 0-1 0 0 0 0 0 0 1 0 0 0 0-1 0 0 0 0 0 0 0 0 1-1 1-1 1 0 0 0 0 0 0l0 1-3 0 0 0c0 0 0 0 0 0-1 0-1 0-1 0-1 1 0 0 1-1z m7-3c0 0 0 0 0 0 0 0 0 0 0 0 0 0 0 1 0 1 0 0 0-1 0-1z m-229 72l0-26 8-3c25-9 46-16 60-21 9-3 22-8 30-11 29-10 39-13 49-17 20-7 23-8 34-11 15-6 20-7 26-9 6-1 9-2 12-1 4 0 5 1 8 3 2 4 4 8 5 11 0 2 0 6 0 7-1 3-3 5-6 7-2 2-6 4-11 6-3 1-5 2-15 5l-8 3 0 41 0 41-193 0z"/>
    </symbol>
  
    <symbol id="icon-microfinance" viewBox="0 0 512 512">
      <path d="m204 200c-60-5-95-11-111-20l-8-4 0-55-1-55 5-4c12-9 40-15 88-20 44-5 156-5 201 0 34 4 66 10 78 15 15 6 14 3 14 63 0 58 0 58-10 61-4 2-4-2-4-49 0-46 0-51-3-50-2 1-7 2-11 2l-8 2 0 51c0 28 0 52-1 52-1 1-5 2-8 3l-7 1 0-104-5 0c-3 0-8 1-10 1l-4 2 0 102-5 1c-12 4-11 7-11-49l0-51-7 1c-3 1-8 1-12 1l-5 0 0 101-7 1c-15 3-115 3-148 1z m-73 135c-52-4-91-12-103-21l-5-3-1-106 5 4c5 4 22 10 42 15 32 6 123 11 179 9l33-1 0 103-9 2c-16 2-106 1-141-2z m60 134c-53-5-81-10-97-18l-9-5-1-53c0-49 0-53 3-50 5 5 8 6 27 11 45 11 74 13 168 13l83 0 0 102-13 1c-17 2-142 1-161-1z m188-197c0-39 0-52 2-52 11-4 22-9 25-11 2-2 2 5 2 50l0 53-10 5c-6 3-12 5-15 6l-4 1z m-38 7l0-52 4 0c3 0 7-1 9-2l5-1 0 52c0 29-1 52-2 52-1 0-5 1-9 2l-7 2z m-38 3l0-51 18 0 0 103-18 0z m84 133l0-53 15 0 0 52c0 28 0 51-1 51-1 0-5 1-8 2l-6 1z m37-5c0-48 1-52 4-53 2 0 5-1 8-2l4-1 0 52c0 39 0 52-2 52-2 1-5 2-8 2l-6 1z m37-10c0-52 0-53 5-56l4-3 0 53c-1 52-1 52-5 55l-5 3z"/>
    </symbol>
  
    <symbol id="icon-medical" viewBox="0 0 512 512">
      <path d="m168 428l0-84-168 0 0-177 168 0 0-166 177 0 0 166 167 0 0 177-167 0 0 168-177 0z"/>
    </symbol>
  
    <symbol id="icon-humanrights" viewBox="0 0 512 512">
      <path d="m111 429c-40-5-73-29-90-66-5-10-6-13-3-19 3-5 18-38 18-39 0-1 9-19 21-46 3-5 11-24 19-41 8-18 17-38 20-45 9-18 15-32 19-41l4-9 27 0c15 0 43-1 63-1l36-2 0-61 30 0 0 62 64 1 64 0 4 8c3 4 8 16 12 25 11 24 16 35 23 50 3 7 6 14 6 14 0 1 4 10 9 20 5 10 11 23 13 28 17 37 25 56 31 69 4 8 7 15 7 16 0 6-18 35-26 44-36 36-92 46-139 24-22-11-42-31-53-52l-7-16 4-9c9-20 24-54 30-68 4-7 10-22 15-32 5-10 9-19 9-20 0 0 2-6 5-12 3-6 7-15 9-19 10-23 14-32 16-36 1-2 2-4 1-4 0-1-220-2-220-2 0 1 20 48 26 61 11 23 14 29 14 30 0 1 3 9 8 18 4 10 12 29 18 42 6 13 13 29 16 35 6 14 6 16 0 30-21 45-70 70-123 63z m96-80c0-1-6-15-13-31-3-6-9-20-13-31-10-23-36-82-44-99-3-6-5-12-5-13 0-4-4-2-6 3-1 2-9 20-18 39-8 19-18 40-21 46-3 7-7 17-10 22-19 43-25 56-27 60l-2 5 80 0c44 0 79 0 79-1z m269-1c-3-3-16-32-16-33 0 0-3-8-8-17-4-9-9-21-12-27-7-16-23-52-30-67-4-8-8-18-11-23-4-10-4-10-16 19-5 11-13 27-17 36-4 10-10 22-12 28-3 6-8 18-12 27-4 9-8 18-9 20-1 2-5 11-9 20-4 8-7 16-7 17 0 1 34 2 80 2 43 0 79-1 79-2z"/>
    </symbol>
  
    <symbol id="icon-enviromental" viewBox="0 0 512 512">
      <path d="m136 512c13-13 34-24 58-32 17-6 19-6 34 1 6 3 12 5 12 4 0 0-3-8-6-18-13-32-19-67-18-90 1-6 1-11 0-11-1 1-2 2-2 4 0 4-12 17-19 20-8 4-27 4-39 1-10-3-32-13-40-19-11-8-34-33-47-50-14-19-33-39-49-52l-9-7 11 0c6 0 26-4 44-8 45-10 55-11 75-6 36 8 59 25 74 55l8 19 2-11c1-6 3-15 4-19 3-8 3-8-7-19-16-18-17-26-9-63 5-24 17-46 34-63 27-28 57-41 138-61 12-3 42-14 54-20 20-10 38-27 52-48 2-4 3-3 2 4-1 5-3 14-4 20-1 6-4 23-6 39-11 67-21 107-37 141-21 45-58 79-107 97-35 14-58 12-75-4-5-5-10-10-10-10-1 0-1 3-1 7 0 4-1 13-3 21-7 33-9 51-6 67 2 8 5 19 8 25 9 18 18 48 18 57l0 8 33-1 33-2 14 8c7 4 18 9 22 10 5 2 8 4 8 5-1 1-56 1-123 1-67 0-122 0-121 0z"/>
    </symbol>
  
    <symbol id="icon-business" viewBox="0 0 512 512">
      <path d="m12 350l0-125 130 0 0 250-130 0z m183-41l0-168 130 0 0 336-130 0z m180-59l0-224 125 0 0 449-125 0z"/>
    </symbol>
  
    <symbol id="icon-professional" viewBox="0 0 512 512">
      <path d="m205 485c-5-1-8-2-8-3 0-1-3-2-6-2-3 0-5-1-5-2 0-1-5-3-11-4-6 0-11-2-11-3 0-1-3-2-6-3-4-1-7-2-7-3 0-2-1-2-3-2-2 0-4-1-4-3 0-1-2-2-5-3-3-1-5-2-5-3 0-1-2-2-4-2-2 0-5-3-8-6-3-3-6-5-7-5-1 0-4-3-8-6-5-6-6-9-6-18 0-6 1-11 2-11 1 0 3-12 4-28 0-15 2-28 3-28 1-1 2-13 3-28 1-15 3-27 4-27 1 0 1-2 1-5 0-4 2-6 6-7 3 0 5-2 5-3 0-1 4-2 9-3 5-1 9-2 9-3 0-2 2-2 4-2 2 0 4-1 4-2 0-1 3-3 7-4 3-1 6-2 6-3 0-1 3-2 6-2 3 0 5-1 5-2 0-1 4-3 8-4 4-1 7-2 7-3 0-1 2-2 4-2 1 0 3-1 3-2 0-1 2-3 5-3 4-1 5-3 7-10 1-10 5-11 10-6 2 2 6 4 8 4 3 0 5 1 5 2 0 1 2 2 5 2 9 0 8 3-1 13-8 8-11 15-7 15 1 0 3 2 3 5 1 3 4 6 6 7 4 1 4 3 4 16 0 9 0 16-2 16-1 0-2 8-2 21 0 12-1 22-2 22-1 0-2 18-3 41-1 23-3 41-4 41-1 0-2 10-2 21 0 12-1 21-2 21-1 0-2 2-2 5 0 6-1 6-22 4z m37-270c0-1-3-2-6-3-4-1-7-2-7-3 0-2-1-2-3-2-2 0-3-1-3-2 0-2-2-3-5-4-2-1-5-3-5-6-1-3-4-6-6-8-2-2-4-6-5-9-1-3-3-6-4-7-4-2-3-65 0-66 2 0 3-4 4-8 1-5 3-8 6-9 2 0 4-3 4-5 0-4 6-10 13-12 2-1 4-2 4-3 0-2 1-2 3-2 2 0 4-2 4-3 1-4 37-4 38 0 1 1 2 3 3 3 1 0 5 2 9 5 3 4 7 8 9 9 5 5 8 9 9 15 1 3 2 5 3 5 2 0 2 2 2 4 0 3 2 5 3 5 4 2 4 57 0 58-1 0-3 2-3 4 0 2-1 3-2 3-1 0-2 3-3 7-2 9-23 30-33 31-4 1-7 2-7 3 0 2-5 2-11 2-6 0-11-1-11-2z m49 261c-1-5-1-14-1-20 0-6-1-11-2-11-1 0-3-13-4-28 0-16-2-28-3-28-1 0-2-7-2-15 0-9-1-16-2-16-1 0-3-12-3-28-1-15-3-28-4-28-1 0-2-5-2-12 0-6 1-12 2-12 1 0 3-3 4-6 0-4 2-7 3-7 1 0 2-3 2-6 0-5-1-7-5-8-6-2-13-10-11-12 1-1 3-2 6-2 3 0 6-1 6-2 0-1 2-2 4-2 2 0 4-1 5-2 0-2 3-3 6-4 6-1 6-1 8 7 1 9 4 12 11 12 3 0 5 1 5 2 0 1 1 2 3 2 2 0 3 1 3 2 0 1 5 3 11 3 6 1 11 3 11 4 0 1 1 2 3 2 2 0 3 1 3 2 0 1 5 2 11 3 6 1 11 3 11 4 0 1 2 2 3 2 2 0 4 1 4 2 0 1 5 2 10 3 11 2 11 2 11 9 0 4 1 7 2 7 1 0 3 8 4 18 1 9 2 17 3 17 1 0 2 3 2 8 0 4 1 7 2 7 1 0 3 8 4 18 0 9 2 17 3 17 1 0 2 3 2 8 0 4 1 7 2 7 1 0 2 5 3 11l1 12-13 12c-7 7-14 13-15 13-1 0-4 2-7 5-3 3-6 6-8 6-1 0-2 1-2 2 0 1-2 2-5 3-3 1-6 2-6 3 0 2-1 3-3 3-2 0-3 0-3 1 0 2-4 3-8 4-4 1-8 2-8 3 0 1-4 3-10 3-6 1-11 3-11 4 0 1-3 2-6 2-2 0-5 1-5 2-1 1-6 2-12 3l-11 2z m217-186c0-2 1-2 2-2 1 0 2 0 2 2 0 1-1 1-2 1-1 0-2 0-2-1z m-496-258c0 0 0 0 0 0 1 0 1 0 0 0 0 0 0 0 0 0z m-11 23c0 0 0 0 1 0 0 0 0 0 0 0 0 1 0 1 0 1-1 0-1 0-1-1z"/>
    </symbol>
  
</svg>
